<svg version="1.1" xmlns="http://www.w3.org/2000/svg" xmlns:xlink="http://www.w3.org/1999/xlink" viewBox="0 0 100 100"  preserveaspectratio="none">
<g>
    <path display="inline" fill="none" stroke-width="1" stroke-miterlimit="10" d="M66.014,53.412l4.127-0.444
        v-5.936l-4.127-0.445c-0.392-1.742-1.078-3.371-2.004-4.836l2.604-3.235l-4.196-4.196l-3.235,2.604
        c-1.464-0.926-3.095-1.612-4.836-2.004L53.9,30.792h-5.935L47.52,34.92c-1.742,0.392-3.372,1.079-4.836,2.004l-3.234-2.604
        l-4.197,4.196l2.604,3.235c-0.926,1.465-1.612,3.094-2.004,4.836l-4.127,0.445v5.936l4.127,0.444
        c0.392,1.743,1.08,3.372,2.004,4.837l-2.604,3.235l4.197,4.195l3.234-2.603c1.465,0.925,3.095,1.611,4.836,2.004l0.446,4.127H53.9
        l0.446-4.127c1.741-0.393,3.372-1.08,4.836-2.004l3.235,2.603l4.196-4.195l-2.604-3.235C64.936,56.784,65.621,55.155,66.014,53.412
        z M50.932,51.25c-0.691,0-1.25-0.561-1.25-1.25c0-0.69,0.56-1.25,1.25-1.25c0.689,0,1.249,0.56,1.249,1.25
        C52.181,50.689,51.621,51.25,50.932,51.25z"/>
</g>
</svg>
