<svg version="1.1" xmlns="http://www.w3.org/2000/svg" xmlns:xlink="http://www.w3.org/1999/xlink" viewBox="0 0 100 100"  preserveaspectratio="none">
<g>
    <path display="inline" fill="none" stroke-width="1" stroke-miterlimit="10" d="M59.521,59.995
        c-0.938-0.937-8.59-4.373-8.59-4.373v-3.123c1.744-0.969,4.823-2.811,4.843-7.966c0.013-3.535-2.167-5.309-4.843-5.309
        c-2.674,0-4.841,1.774-4.841,5.309c0,5.155,3.098,6.997,4.841,7.966v3.123c0,0-7.651,3.438-8.588,4.373
        c-0.938,0.938-1.718,2.343-1.718,5.622c0,3.28,0,3.592,0,3.592h10.306h10.308c0,0,0-0.312,0-3.592S60.458,60.933,59.521,59.995z"/>
</g>
</svg>
