<svg version="1.1" xmlns="http://www.w3.org/2000/svg" xmlns:xlink="http://www.w3.org/1999/xlink" viewBox="0 0 100 100"  preserveaspectratio="none">


<g>
    <path display="inline" fill="none"  stroke-width="1" stroke-miterlimit="10" d="M45.132,55.904
        c1.363,1.365,1.999,0.809,4.838-2.037c6.665-4.336,13.297-12.252,14.924-15.948c0.51-1.161,0.627-1.63,0.228-2.049
        c-0.418-0.401-0.886-0.284-2.044,0.228c-3.688,1.629-11.587,8.277-15.913,14.957C44.325,53.9,43.769,54.538,45.132,55.904z"/>

        <line display="inline" fill="none"  stroke-width="1" stroke-miterlimit="10" x1="47.164" y1="51.055" x2="49.97" y2="53.867"/>
    <path display="inline" fill="none"  stroke-width="1" stroke-miterlimit="10" d="M44.358,54.57
        c-0.873-0.196-2.689-0.117-3.976,1.055c-1.164,1.061-1.46,2.327-1.637,3.047c-0.479,1.948-0.941,1.287-1.988,0.586
        c-0.702,3.561,2.568,4.952,3.711,5.102c4.92,0.642,6.812-4.866,6.111-7.562"/>
    <g display="inline">
        <path fill="#1C75BC" d="M46.112,56.35c0,0-0.013,0.073-0.036,0.199c-0.025,0.135-0.06,0.325-0.115,0.541
            c-0.097,0.438-0.277,1.008-0.499,1.557c-0.114,0.273-0.262,0.537-0.381,0.781c-0.158,0.228-0.305,0.439-0.431,0.621
            c-0.316,0.299-0.526,0.499-0.526,0.499s0.149-0.239,0.373-0.598c0.071-0.195,0.155-0.423,0.244-0.667
            c0.05-0.26,0.121-0.522,0.158-0.794c0.069-0.548,0.097-1.097,0.081-1.507c0-0.207-0.015-0.371-0.022-0.484
            c-0.009-0.121-0.015-0.189-0.015-0.189L46.112,56.35z"/>
    </g>
</g>

</svg>
