<svg version="1.1" xmlns="http://www.w3.org/2000/svg" xmlns:xlink="http://www.w3.org/1999/xlink" viewBox="0 0 100 100"  preserveaspectratio="none">
<g >
    <g display="inline">

            <rect x="35.941" y="30.791" fill="none" stroke-width="0.2344" stroke-miterlimit="10" width="29.981" height="38.418"/>
        <g>

                <rect x="39.375" y="43.283" fill="none" stroke-width="1" stroke-miterlimit="10" width="5.623" height="5.623"/>

                <rect x="48.121" y="43.283" fill="none" stroke-width="1" stroke-miterlimit="10" width="5.623" height="5.623"/>

                <rect x="56.866" y="43.283" fill="none" stroke-width="1" stroke-miterlimit="10" width="5.622" height="5.623"/>

                <rect x="39.375" y="52.03" fill="none" stroke-width="1" stroke-miterlimit="10" width="5.623" height="5.621"/>

                <rect x="48.121" y="52.03" fill="none" stroke-width="1" stroke-miterlimit="10" width="5.623" height="5.621"/>

                <rect x="39.375" y="60.774" fill="none" stroke-width="1" stroke-miterlimit="10" width="5.623" height="5.624"/>

                <rect x="48.121" y="60.774" fill="none" stroke-width="1" stroke-miterlimit="10" width="5.623" height="5.624"/>

                <rect x="56.866" y="52.03" fill="none" stroke-width="1" stroke-miterlimit="10" width="5.622" height="14.368"/>
        </g>

            <rect id="screen_7_" x="39.375" y="33.757" fill="none" stroke-width="0.0059" stroke-miterlimit="10" width="23.113" height="6.56"/>
    </g>
    <g display="inline">

            <rect x="35.941" y="30.791" fill="none" stroke-width="1" stroke-miterlimit="10" width="29.981" height="38.418"/>
        <g>

                <rect x="39.375" y="43.283" fill="none" stroke-width="1" stroke-miterlimit="10" width="5.623" height="5.623"/>

                <rect x="48.121" y="43.283" fill="none" stroke-width="1" stroke-miterlimit="10" width="5.623" height="5.623"/>

                <rect x="56.866" y="43.283" fill="none" stroke-width="1" stroke-miterlimit="10" width="5.622" height="5.623"/>

                <rect x="39.375" y="52.03" fill="none" stroke-width="1" stroke-miterlimit="10" width="5.623" height="5.621"/>

                <rect x="48.121" y="52.03" fill="none" stroke-width="1" stroke-miterlimit="10" width="5.623" height="5.621"/>

                <rect x="39.375" y="60.774" fill="none" stroke-width="1" stroke-miterlimit="10" width="5.623" height="5.624"/>

                <rect x="48.121" y="60.774" fill="none" stroke-width="1" stroke-miterlimit="10" width="5.623" height="5.624"/>

                <rect x="56.866" y="52.03" fill="none" stroke-width="1" stroke-miterlimit="10" width="5.622" height="14.368"/>
        </g>

            <rect  x="39.375" y="33.757" fill="none" stroke-width="1" stroke-miterlimit="10" width="23.113" height="6.56"/>
    </g>
</g>
</svg>
