<svg version="1.1" xmlns="http://www.w3.org/2000/svg" xmlns:xlink="http://www.w3.org/1999/xlink" viewBox="0 0 100 100"  preserveaspectratio="none">
<g>
    <path display="inline" fill="none" stroke-width="1" stroke-miterlimit="10" d="M53.442,59.277l2.955-0.219
        v-4.373l-2.955-0.219c-0.445-1.743-1.364-3.295-2.609-4.515l1.29-2.672l-3.788-2.188l-1.667,2.452
        c-0.83-0.232-1.703-0.356-2.608-0.356c-0.904,0-1.778,0.124-2.608,0.356l-1.667-2.452l-3.788,2.188l1.291,2.672
        c-1.247,1.22-2.165,2.771-2.609,4.515l-2.957,0.219v4.373l2.957,0.219c0.445,1.741,1.363,3.295,2.609,4.513l-1.291,2.674
        l3.788,2.186l1.667-2.45c0.83,0.231,1.704,0.355,2.608,0.355c0.903,0,1.778-0.124,2.608-0.355l1.667,2.45l3.788-2.186l-1.29-2.674
        C52.078,62.572,52.997,61.019,53.442,59.277z"/>

        <circle display="inline" fill="none" stroke-width="3" stroke-miterlimit="10" cx="44.06" cy="56.872" r="0.156"/>
    <path display="inline" fill="none" stroke-width="1" stroke-miterlimit="10" d="M66.083,43.354l2.54-0.188
        v-3.76l-2.54-0.188c-0.383-1.498-1.171-2.832-2.243-3.879l1.108-2.298l-3.256-1.878l-1.435,2.106
        c-0.713-0.199-1.464-0.305-2.241-0.305c-0.776,0-1.527,0.106-2.241,0.305l-1.434-2.106l-3.254,1.878l1.108,2.298
        c-1.07,1.048-1.861,2.383-2.243,3.879l-2.542,0.188v3.76l2.542,0.188c0.382,1.498,1.171,2.832,2.243,3.88l-1.108,2.296l3.254,1.88
        l1.434-2.106c0.714,0.198,1.465,0.305,2.241,0.305c0.777,0,1.528-0.107,2.241-0.305l1.435,2.106l3.256-1.88l-1.108-2.297
        C64.909,46.187,65.698,44.853,66.083,43.354z"/>

        <circle display="inline" fill="none" stroke-width="3" stroke-miterlimit="10" cx="58.019" cy="41.287" r="0.023"/>
</g>
</svg>
