<svg version="1.1" xmlns="http://www.w3.org/2000/svg" xmlns:xlink="http://www.w3.org/1999/xlink" viewBox="0 0 100 100"  preserveaspectratio="none">
<g>
<ellipse display="inline" fill="none"  stroke-width="1" stroke-miterlimit="10" cx="51" cy="42.568" rx="14.414" ry="5.732"/>

        <ellipse display="inline" fill="none"  stroke-width="1" stroke-miterlimit="10" cx="51" cy="42.568" rx="3.027" ry="1.204"/>
    <path display="inline" fill="none"  stroke-width="1" stroke-miterlimit="10" d="M63.829,44.635
        c1.014,0.784,1.585,1.673,1.585,2.616c0,3.166-6.454,5.731-14.414,5.731s-14.414-2.566-14.414-5.731
        c0-0.896,0.518-1.746,1.441-2.501"/>
    <path display="inline" fill="none"  stroke-width="1" stroke-miterlimit="10" d="M63.829,49.388
        c1.014,0.785,1.585,1.674,1.585,2.617c0,3.166-6.454,5.731-14.414,5.731s-14.414-2.565-14.414-5.731
        c0-0.897,0.518-1.746,1.441-2.502"/>
    <path display="inline" fill="none"  stroke-width="1" stroke-miterlimit="10" d="M63.973,54.256
        c0.924,0.755,1.441,1.604,1.441,2.501c0,3.166-6.454,5.732-14.414,5.732s-14.414-2.567-14.414-5.732
        c0-0.849,0.464-1.655,1.297-2.38"/>
</g>
</svg>
