<svg version="1.1" xmlns="http://www.w3.org/2000/svg" xmlns:xlink="http://www.w3.org/1999/xlink" viewBox="0 0 100 100"  preserveaspectratio="none">
<g>
    <path display="inline" fill="none" stroke-width="1" stroke-miterlimit="10" d="M51.535,45.448
        c4.61-4.61,6.374-4.747,6.374-4.747c0.317,0.656,0.748,1.27,1.292,1.813c2.618,2.618,5.445,1.213,8.063-1.405
        c2.617-2.618,4.034-5.458,1.416-8.075c-1.29-1.292-3.251-2.212-4.941-2.231c0,0-4.882-0.813-16.272,10.578
        C36.077,52.771,36.89,57.652,36.89,57.652c0.018,1.69,0.94,3.652,2.23,4.943c2.617,2.617,5.457,1.199,8.076-1.416
        c2.617-2.619,4.024-5.446,1.404-8.063c-0.543-0.544-1.158-0.974-1.812-1.293C46.787,51.822,46.924,50.059,51.535,45.448z"/>
    <path display="inline" fill="none" stroke-width="1" stroke-miterlimit="10" d="M39.12,62.596
        c-0.994,2.709-3.961,1.929-0.681,5.676c0.54,0.616-3.28-0.938-3.28,0s0,1.719,0,1.719"/>
</g>
</svg>
