<svg version="1.1" xmlns="http://www.w3.org/2000/svg" xmlns:xlink="http://www.w3.org/1999/xlink" viewBox="0 0 100 100"  preserveaspectratio="none">
<g>

        <circle display="inline" fill="none" stroke-width="1" stroke-miterlimit="10" cx="50.932" cy="50" r="19.209"/>
    <path display="inline" fill="none" stroke-width="1" stroke-miterlimit="10" d="M54.472,41.424
        c0.544,0.23,1.062,0.512,1.546,0.838c0.484,0.327,0.935,0.698,1.346,1.11c0.413,0.412,0.783,0.862,1.111,1.346
        c0.328,0.483,0.609,1.001,0.839,1.544c0.229,0.544,0.408,1.116,0.529,1.708c0.121,0.591,0.187,1.204,0.187,1.832
        s-0.065,1.241-0.187,1.832c-0.121,0.592-0.301,1.163-0.529,1.707c-0.232,0.545-0.514,1.062-0.839,1.545
        c-0.328,0.483-0.698,0.937-1.111,1.346c-0.411,0.413-0.861,0.785-1.346,1.11c-0.484,0.328-1.001,0.609-1.546,0.838
        c-0.544,0.229-1.114,0.409-1.708,0.53c-0.591,0.121-1.203,0.185-1.832,0.185c-0.626,0-1.24-0.062-1.832-0.185
        c-0.592-0.121-1.164-0.301-1.707-0.53c-0.544-0.229-1.061-0.511-1.546-0.838c-0.484-0.325-0.935-0.697-1.346-1.11
        c-0.412-0.411-0.784-0.862-1.11-1.346c-0.328-0.482-0.609-1-0.839-1.545c-0.229-0.544-0.409-1.115-0.529-1.707
        c-0.121-0.591-0.185-1.204-0.185-1.832s0.062-1.241,0.185-1.832c0.122-0.592,0.3-1.164,0.529-1.708
        c0.23-0.543,0.512-1.061,0.839-1.544c0.326-0.484,0.698-0.936,1.11-1.346c0.411-0.412,0.862-0.784,1.346-1.11
        c0.483-0.327,1-0.609,1.546-0.838"/>

        <line display="inline" fill="none" stroke-width="1" stroke-miterlimit="10" x1="50.932" y1="35.69" x2="50.932" y2="46.297"/>
</g>
</svg>
