<svg version="1.1" xmlns="http://www.w3.org/2000/svg" xmlns:xlink="http://www.w3.org/1999/xlink" viewBox="0 0 100 100"  preserveaspectratio="none">
<g>
    <g display="inline">
        <path fill="none"  stroke-width="1" stroke-miterlimit="10" d="M57.327,43.806l-1.929-3.34
            c0,0-1.446-2.505-1.931-3.34c-0.481-0.835-1.149-1.122-1.928-1.122s-1.447,0.286-1.929,1.122c-0.482,0.835-5.462,9.38-5.462,9.38"
            />
        <polyline fill="none"  stroke-width="1" stroke-miterlimit="10" points="51.93,42.437 57.439,43.913
            58.917,38.402       "/>
    </g>
    <g display="inline">
        <path fill="none"  stroke-width="1" stroke-miterlimit="10" d="M55.439,60.547h3.856c0,0,2.894,0,3.856,0
            c0.965,0,1.547-0.436,1.937-1.109s0.476-1.396-0.007-2.229c-0.48-0.835-5.114-8.886-5.114-8.886"/>
        <polyline fill="none"  stroke-width="1" stroke-miterlimit="10" points="59.325,56.559 55.291,60.592
            59.325,64.625       "/>
    </g>
    <g display="inline">
        <path fill="none"  stroke-width="1" stroke-miterlimit="10" d="M41.846,50.487l-1.929,3.34
            c0,0-1.446,2.505-1.929,3.34c-0.482,0.835-0.396,1.558-0.007,2.231c0.389,0.672,0.971,1.107,1.936,1.107s3.857,0,3.857,0h7.119"/>
        <polyline fill="none"  stroke-width="1" stroke-miterlimit="10" points="43.358,55.846 41.882,50.336
            36.371,51.812       "/>
    </g>
</g>
</svg>
