<svg version="1.1" xmlns="http://www.w3.org/2000/svg" xmlns:xlink="http://www.w3.org/1999/xlink" viewBox="0 0 100 100"  preserveaspectratio="none">

<g>
    <path fill="none" stroke-width="1" stroke-miterlimit="10" d="M39.521,54.66
        c-0.28-1.685-1.905-2.83-4.051-2.474c-2.146,0.358-3.998,2.082-3.718,3.768s2.247,2.763,4.392,2.406
        C38.291,58.001,39.802,56.345,39.521,54.66z"/>
    <path fill="none" stroke-width="1" stroke-miterlimit="10" d="M35.471,52.187c0,0,11.94-2.709,13.225-3.555
        c1.283-0.847,3.33-4.254,10.67-5.191c4.534-0.58,9.214,1.874,9.214,1.874l-19.521,3.124"/>
    <path fill="none" stroke-width="1" stroke-miterlimit="10" d="M39.521,43.533
        c-0.28,1.686-1.905,2.831-4.051,2.473c-2.146-0.357-3.998-2.082-3.718-3.768c0.28-1.686,2.247-2.762,4.392-2.405
        C38.291,40.192,39.802,41.848,39.521,43.533z"/>
    <path fill="none" stroke-width="1" stroke-miterlimit="10" d="M35.471,46.007c0,0,11.94,2.708,13.225,3.554
        c1.283,0.847,3.33,4.255,10.67,5.191c4.534,0.578,9.214-1.874,9.214-1.874l-19.521-3.036"/>
</g>


</svg>
