<svg version="1.1" xmlns="http://www.w3.org/2000/svg" xmlns:xlink="http://www.w3.org/1999/xlink" viewBox="0 0 100 100"  preserveaspectratio="none">

<g>
    <path display="inline" fill="none"  stroke-width="1" stroke-miterlimit="10" d="M36.564,45.134
        c0.925-0.927,1.938-1.766,3.026-2.502c1.087-0.736,2.25-1.371,3.473-1.889c1.223-0.518,2.507-0.921,3.838-1.194
        c1.331-0.273,2.709-0.417,4.121-0.417c1.412,0,2.791,0.144,4.121,0.417c1.332,0.273,2.615,0.675,3.838,1.194
        c1.224,0.519,2.386,1.153,3.474,1.889c1.088,0.737,2.101,1.575,3.026,2.502"/>
    <path display="inline" fill="none"  stroke-width="1" stroke-miterlimit="10" d="M41.354,49.935
        c0.619-0.62,1.296-1.181,2.023-1.673c0.728-0.493,1.505-0.917,2.323-1.264c0.818-0.347,1.676-0.616,2.566-0.798
        c0.89-0.182,1.812-0.278,2.755-0.278s1.865,0.096,2.756,0.278c0.89,0.182,1.748,0.452,2.565,0.798
        c0.817,0.346,1.595,0.771,2.323,1.264c0.729,0.492,1.404,1.053,2.023,1.673"/>
    <path display="inline" fill="none"  stroke-width="1" stroke-miterlimit="10" d="M45.937,54.527
        c0.325-0.326,0.681-0.622,1.064-0.881c0.382-0.258,0.791-0.481,1.221-0.664c0.431-0.184,0.882-0.324,1.351-0.42
        c0.468-0.097,0.952-0.146,1.45-0.146c0.496,0,0.98,0.051,1.449,0.146c0.467,0.096,0.92,0.237,1.351,0.42
        c0.43,0.182,0.839,0.404,1.221,0.664c0.384,0.26,0.739,0.555,1.065,0.881"/>

        <line display="inline" fill="none"  stroke-width="1" stroke-miterlimit="10" x1="51.023" y1="55.625" x2="51.023" y2="65"/>

        <line display="inline" fill="none"  stroke-width="1" stroke-miterlimit="10" x1="51.023" y1="59.023" x2="48.684" y2="56.562"/>

        <line display="inline" fill="none"  stroke-width="1" stroke-miterlimit="10" x1="50.906" y1="59.141" x2="53.244" y2="56.68"/>
</g>
</svg>
