<svg version="1.1" xmlns="http://www.w3.org/2000/svg" xmlns:xlink="http://www.w3.org/1999/xlink" viewBox="0 0 100 100"  preserveaspectratio="none">
<g>

        <ellipse display="inline" fill="none" stroke-width="1" stroke-miterlimit="10" cx="47.497" cy="50" rx="6.028" ry="14.051"/>

        <ellipse display="inline" fill="none" stroke-width="1" stroke-miterlimit="10" cx="44.214" cy="50" rx="2.354" ry="5.484"/>
    <path display="inline" fill="none" stroke-width="1" stroke-miterlimit="10" d="M35.86,47.135h-2.902
        c-0.683,0-1.236,1.283-1.236,2.865c0,1.583,0.553,2.866,1.236,2.866h2.902"/>
    <path display="inline" fill="none" stroke-width="1" stroke-miterlimit="10" d="M67.757,33.522
        c0.736,2.108,1.333,4.62,1.744,7.407c0.411,2.789,0.64,5.854,0.64,9.07c0,3.219-0.229,6.282-0.64,9.071
        c-0.411,2.788-1.008,5.298-1.744,7.406"/>
    <path display="inline" fill="none" stroke-width="1" stroke-miterlimit="10" d="M62.457,37.759
        c0.548,1.566,0.99,3.432,1.297,5.502c0.306,2.071,0.475,4.348,0.475,6.738s-0.169,4.667-0.475,6.739
        c-0.305,2.069-0.749,3.936-1.297,5.502"/>
    <path display="inline" fill="none" stroke-width="1" stroke-miterlimit="10" d="M57.519,41.996
        c0.357,1.025,0.647,2.244,0.847,3.598c0.201,1.354,0.312,2.844,0.312,4.406c0,1.563-0.11,3.052-0.312,4.407
        c-0.199,1.354-0.489,2.574-0.847,3.598"/>
    <path display="inline" fill="none" stroke-width="1" stroke-miterlimit="10" d="M43.679,60.724
        c-2.504-1.918-5.431-3.846-6.646-6.083c-0.737-1.299-1.173-2.583-1.173-4.639s0.436-3.342,1.173-4.64
        c1.215-2.239,4.142-4.165,6.646-6.084"/>
</g>
</svg>
