<svg version="1.1" xmlns="http://www.w3.org/2000/svg" xmlns:xlink="http://www.w3.org/1999/xlink" viewBox="0 0 100 100"  preserveaspectratio="none">
<g>
    <path display="inline" fill="none" stroke-width="1" stroke-miterlimit="10" d="M46.091,57.989
        c-1.798-1.053-6.114-2.991-6.114-2.991V52.52c1.381-0.768,3.823-2.229,3.839-6.316c0.011-2.805-1.719-4.211-3.839-4.211
        c-2.121,0-3.84,1.406-3.84,4.211c0,4.087,2.458,5.549,3.84,6.316v2.479c0,0-6.069,2.724-6.813,3.467
        c-0.744,0.744-1.362,1.858-1.362,4.46s0,6.284,0,6.284h8.175h0.648"/>
    <path display="inline" fill="none" stroke-width="1" stroke-miterlimit="10" d="M61.239,69.209h0.688h8.175
        c0,0,0-3.683,0-6.284s-0.619-3.716-1.361-4.46c-0.744-0.743-6.813-3.467-6.813-3.467V52.52c1.385-0.768,3.826-2.229,3.839-6.316
        c0.012-2.805-1.718-4.211-3.839-4.211c-2.119,0-3.84,1.406-3.84,4.211c0,4.087,2.457,5.549,3.84,6.316v2.479
        c0,0-4.137,1.858-5.997,2.923"/>
    <path display="inline" fill="none" stroke-width="1" stroke-miterlimit="10" d="M59.521,59.995
        c-0.938-0.937-8.59-4.373-8.59-4.373v-3.123c1.744-0.969,4.823-2.811,4.843-7.966c0.013-3.535-2.167-5.309-4.843-5.309
        c-2.674,0-4.841,1.774-4.841,5.309c0,5.155,3.098,6.997,4.841,7.966v3.123c0,0-7.651,3.438-8.588,4.373
        c-0.938,0.938-1.718,2.343-1.718,5.622c0,3.28,0,3.592,0,3.592h10.306h10.308c0,0,0-0.312,0-3.592S60.458,60.933,59.521,59.995z"/>
</g>
</svg>
