<svg version="1.1" xmlns="http://www.w3.org/2000/svg" xmlns:xlink="http://www.w3.org/1999/xlink" viewBox="0 0 100 100"  preserveaspectratio="none">

<g>
    <g display="inline">
        <path fill="none"  stroke-width="1" stroke-miterlimit="10" d="M46.835,46.953
            c-0.09-0.415-0.139-0.847-0.139-1.289c0-3.301,2.67-5.977,5.963-5.977s5.963,2.676,5.963,5.977c0,1.263-0.392,2.434-1.058,3.398"
            />

            <line fill="none"  stroke-width="1" stroke-miterlimit="10" x1="60.494" y1="45.664" x2="63.3" y2="45.664"/>

            <line fill="none"  stroke-width="1" stroke-miterlimit="10" x1="58.199" y1="40.112" x2="60.184" y2="38.124"/>
        <line fill="none"  stroke-width="1" stroke-miterlimit="10" x1="52.66" y1="37.812" x2="52.66" y2="35"/>

            <line fill="none"  stroke-width="1" stroke-miterlimit="10" x1="47.12" y1="40.112" x2="45.136" y2="38.124"/>

            <line fill="none"  stroke-width="1" stroke-miterlimit="10" x1="44.826" y1="45.664" x2="42.019" y2="45.664"/>
    </g>
    <path display="inline" fill="none"  stroke-width="1" stroke-miterlimit="10" d="M60.493,51.873
        c-0.331,0-0.653,0.033-0.966,0.096c-1.321-3.415-4.631-5.835-8.504-5.835c-3.381,0-6.333,1.844-7.908,4.583
        c-0.13-0.008-0.262-0.013-0.394-0.013c-3.358,0-6.08,2.728-6.08,6.094s2.722,6.095,6.08,6.095c0.899,0,1.753-0.197,2.521-0.547
        c1.574,1.293,3.586,2.07,5.781,2.07c2.838,0,5.373-1.299,7.045-3.337c0.716,0.407,1.543,0.642,2.425,0.642
        c2.712,0,4.911-2.203,4.911-4.923C65.404,54.077,63.206,51.873,60.493,51.873z"/>
    <path display="inline" fill="none"  stroke-width="1" stroke-miterlimit="10" d="M60.036,56.68
        c-0.675,4.381-4.454,7.734-9.013,7.734"/>
    <path display="inline" fill="none"  stroke-width="1" stroke-miterlimit="10" d="M48.578,55.156
        c0.146,0.521,0.223,1.072,0.223,1.641c0,3.366-2.722,6.094-6.081,6.094"/>
</g>

</svg>
