<svg version="1.1" xmlns="http://www.w3.org/2000/svg" xmlns:xlink="http://www.w3.org/1999/xlink" viewBox="0 0 100 100"  preserveaspectratio="none">


<g>
    <path display="inline" fill="none"  stroke-width="1.1715" stroke-miterlimit="10" d="M60.082,46.356
        c-0.676,4.378-4.462,7.732-9.03,7.732"/>
    <path display="inline" fill="none"  stroke-width="1.1715" stroke-miterlimit="10" d="M48.603,44.833
        c0.146,0.521,0.224,1.072,0.224,1.64c0,3.364-2.728,6.091-6.092,6.091"/>
    <path display="inline" fill="none"  stroke-width="1.1715" stroke-miterlimit="10" d="M60.54,41.551
        c-0.332,0-0.653,0.033-0.967,0.096c-1.324-3.414-4.642-5.834-8.521-5.834c-3.388,0-6.345,1.843-7.923,4.582
        c-0.131-0.008-0.263-0.014-0.395-0.014c-3.364,0-6.092,2.728-6.092,6.092c0,3.364,2.728,6.091,6.092,6.091
        c0.901,0,1.756-0.195,2.525-0.547c1.577,1.293,3.594,2.07,5.792,2.07c2.844,0,5.383-1.299,7.061-3.336
        c0.717,0.408,1.543,0.641,2.428,0.641c2.718,0,4.921-2.203,4.921-4.92C65.461,43.753,63.258,41.551,60.54,41.551z"/>
    <g display="inline">
        <g>

                <line fill="none"  stroke-width="1.0251" stroke-miterlimit="10" x1="46.791" y1="62.523" x2="55.312" y2="57.604"/>

                <line fill="none"  stroke-width="1.0251" stroke-miterlimit="10" x1="54.896" y1="59.832" x2="53.184" y2="58.833"/>

                <line fill="none"  stroke-width="1.0251" stroke-miterlimit="10" x1="53.174" y1="56.85" x2="53.184" y2="58.833"/>

                <line fill="none"  stroke-width="1.0251" stroke-miterlimit="10" x1="48.93" y1="63.275" x2="48.922" y2="61.293"/>

                <line fill="none"  stroke-width="1.0251" stroke-miterlimit="10" x1="47.208" y1="60.294" x2="48.922" y2="61.293"/>
        </g>
        <g>

                <line fill="none"  stroke-width="1.1715" stroke-miterlimit="10" x1="46.791" y1="62.523" x2="55.312" y2="57.604"/>

                <line fill="none"  stroke-width="1.1715" stroke-miterlimit="10" x1="54.896" y1="59.832" x2="53.184" y2="58.833"/>

                <line fill="none"  stroke-width="1.1715" stroke-miterlimit="10" x1="53.174" y1="56.85" x2="53.184" y2="58.833"/>

                <line fill="none"  stroke-width="1.1715" stroke-miterlimit="10" x1="48.93" y1="63.275" x2="48.922" y2="61.293"/>

                <line fill="none"  stroke-width="1.1715" stroke-miterlimit="10" x1="47.208" y1="60.294" x2="48.922" y2="61.293"/>
        </g>
    </g>
    <g display="inline">
        <g>

                <line fill="none"  stroke-width="1.0251" stroke-miterlimit="10" x1="51.052" y1="64.982" x2="51.052" y2="55.143"/>

                <line fill="none"  stroke-width="1.0251" stroke-miterlimit="10" x1="52.773" y1="56.618" x2="51.052" y2="57.604"/>

                <line fill="none"  stroke-width="1.0251" stroke-miterlimit="10" x1="49.331" y1="56.618" x2="51.052" y2="57.604"/>

                <line fill="none"  stroke-width="1.0251" stroke-miterlimit="10" x1="52.773" y1="63.507" x2="51.052" y2="62.523"/>

                <line fill="none"  stroke-width="1.0251" stroke-miterlimit="10" x1="49.331" y1="63.507" x2="51.052" y2="62.523"/>
        </g>
        <g>

                <line fill="none"  stroke-width="1.1715" stroke-miterlimit="10" x1="51.052" y1="64.982" x2="51.052" y2="55.143"/>

                <line fill="none"  stroke-width="1.1715" stroke-miterlimit="10" x1="52.773" y1="56.618" x2="51.052" y2="57.604"/>

                <line fill="none"  stroke-width="1.1715" stroke-miterlimit="10" x1="49.331" y1="56.618" x2="51.052" y2="57.604"/>

                <line fill="none"  stroke-width="1.1715" stroke-miterlimit="10" x1="52.773" y1="63.507" x2="51.052" y2="62.523"/>

                <line fill="none"  stroke-width="1.1715" stroke-miterlimit="10" x1="49.331" y1="63.507" x2="51.052" y2="62.523"/>
        </g>
    </g>
    <g display="inline">
        <g>

                <line fill="none"  stroke-width="1.0251" stroke-miterlimit="10" x1="55.312" y1="62.523" x2="46.791" y2="57.604"/>

                <line fill="none"  stroke-width="1.0251" stroke-miterlimit="10" x1="48.93" y1="56.85" x2="48.922" y2="58.833"/>

                <line fill="none"  stroke-width="1.0251" stroke-miterlimit="10" x1="47.208" y1="59.832" x2="48.922" y2="58.833"/>

                <line fill="none"  stroke-width="1.0251" stroke-miterlimit="10" x1="54.896" y1="60.293" x2="53.184" y2="61.292"/>

                <line fill="none"  stroke-width="1.0251" stroke-miterlimit="10" x1="53.174" y1="63.275" x2="53.184" y2="61.292"/>
        </g>
        <g>

                <line fill="none"  stroke-width="1.1715" stroke-miterlimit="10" x1="55.312" y1="62.523" x2="46.791" y2="57.604"/>

                <line fill="none"  stroke-width="1.1715" stroke-miterlimit="10" x1="48.93" y1="56.85" x2="48.922" y2="58.833"/>

                <line fill="none"  stroke-width="1.1715" stroke-miterlimit="10" x1="47.208" y1="59.832" x2="48.922" y2="58.833"/>

                <line fill="none"  stroke-width="1.1715" stroke-miterlimit="10" x1="54.896" y1="60.293" x2="53.184" y2="61.292"/>

                <line fill="none"  stroke-width="1.1715" stroke-miterlimit="10" x1="53.174" y1="63.275" x2="53.184" y2="61.292"/>
        </g>
    </g>
</g>
</svg>
