<svg version="1.1" xmlns="http://www.w3.org/2000/svg" xmlns:xlink="http://www.w3.org/1999/xlink" viewBox="0 0 100 100"  preserveaspectratio="none">

<g>
    <path display="inline" fill="none"  stroke-width="1" stroke-miterlimit="10" d="M60.036,46.133
        c-0.675,4.381-4.454,7.734-9.013,7.734"/>
    <path display="inline" fill="none"  stroke-width="1" stroke-miterlimit="10" d="M48.578,44.609
        c0.146,0.522,0.223,1.072,0.223,1.641c0,3.366-2.722,6.094-6.081,6.094"/>
    <path display="inline" fill="none"  stroke-width="1" stroke-miterlimit="10" d="M60.493,41.326
        c-0.331,0-0.653,0.033-0.966,0.096c-1.321-3.415-4.631-5.835-8.504-5.835c-3.381,0-6.333,1.844-7.908,4.583
        c-0.13-0.008-0.262-0.013-0.394-0.013c-3.358,0-6.08,2.728-6.08,6.094s2.722,6.094,6.08,6.094c0.899,0,1.753-0.196,2.521-0.547
        c1.574,1.294,3.586,2.071,5.781,2.071c2.838,0,5.373-1.299,7.045-3.337c0.716,0.407,1.543,0.642,2.425,0.642
        c2.712,0,4.911-2.204,4.911-4.923C65.404,43.53,63.206,41.326,60.493,41.326z"/>
    <polyline display="inline" fill="none"  stroke-width="1" stroke-miterlimit="10" points="48.684,53.281
        47.398,59.023 50.906,59.023 49.502,62.891 56.52,56.562 52.075,56.562 53.012,53.75   "/>
</g>
</svg>
