<svg version="1.1" xmlns="http://www.w3.org/2000/svg" xmlns:xlink="http://www.w3.org/1999/xlink" viewBox="0 0 100 100"  preserveaspectratio="none">

<g>
    <path display="inline" fill="none" stroke-width="1" stroke-miterlimit="10" d="M69.455,36.639l-4.21,4.21
        c-1.427,1.425-3.736,1.425-5.162,0c-1.426-1.426-1.426-3.738,0-5.165l4.209-4.208c-1.088-0.442-2.276-0.685-3.521-0.685
        c-5.175,0-9.37,4.195-9.37,9.37c0,1.269,0.252,2.478,0.709,3.583L32.774,63.077c-1.403,1.403-1.403,3.675,0,5.079
        c1.402,1.402,3.677,1.402,5.081,0l19.336-19.335c1.103,0.457,2.312,0.708,3.58,0.708c5.175,0,9.369-4.195,9.369-9.37
        C70.141,38.915,69.896,37.726,69.455,36.639z"/>

        <circle display="inline" fill="none" stroke-width="1" stroke-miterlimit="10" cx="35.315" cy="65.617" r="0.273"/>
    <path display="inline" fill="none" stroke-width="1" stroke-miterlimit="10" d="M54.523,46.721
        c0,0,1.562,1.562,2.812,2.187"/>
</g>
</svg>
